<?xml version="1.0" encoding="UTF-8"?>
<svg version="1.1" viewBox="0 0 2048 1024" width="1280" height="1280" xmlns="http://www.w3.org/2000/svg">
<path transform="translate(0)" d="m0 0h2048v1024h-2048z" fill="#002393"/>
<path transform="translate(544)" d="m0 0h1504v1024h-482l-1022-1022z" fill="#FECA01"/>
<path transform="translate(1567)" d="m0 0h481v1024h-481z" fill="#002393"/>
<path transform="translate(1126,661)" d="m0 0 2 1 16 50 4 12v2h70l-5 5-13 10-14 10-18 13-5 4 3 11 15 47 2 5v3l-5-2-13-10-17-12-19-14-4-1-16 12-36 26-4 1 12-37 9-29-19-14-36-26v-2l69-1 21-63z" fill="#FEFEFE"/>
<path transform="translate(998,533)" d="m0 0 2 1 16 50 4 12v2h70l-5 5-13 10-14 10-18 13-5 4 3 11 16 50 1 5-5-2-13-10-17-12-19-14-4-1-17 13-17 12-18 13-4 1 12-37 9-29-16-12-14-10-18-13-7-5v-2l69-1 21-63z" fill="#FEFEFE"/>
<path transform="translate(614,149)" d="m0 0 2 1 16 50 4 12v2h70l-5 5-13 10-14 10-18 13-5 4 3 11 15 47 2 5v3l-5-2-13-10-17-12-19-14-4-1-16 12-36 26-4 1 12-37 9-29-19-14-36-26v-2l69-1 21-63z" fill="#FEFEFE"/>
<path transform="translate(486,21)" d="m0 0 2 1 16 50 4 12v2h70l-5 5-13 10-14 10-18 13-5 4 3 11 16 50 1 5-5-2-13-10-17-12-19-14-4-1-17 13-17 12-18 13-4 1 12-37 9-29-19-14-36-26v-2l69-1 21-63z" fill="#FEFEFE"/>
<path transform="translate(870,405)" d="m0 0 2 1 16 50 4 12v2h70l-5 5-13 10-14 10-18 13-5 4 3 11 15 47 2 5v3l-5-2-13-10-17-12-19-14-4-1-16 12-36 26-4 1 12-37 9-29-19-14-36-26v-2l69-1 21-63z" fill="#FEFEFE"/>
<path transform="translate(742,277)" d="m0 0 2 1 16 50 4 12v2h70l-5 5-13 10-17 12-19 14-1 3 19 59 1 5-5-2-13-10-17-12-19-14-4-1-16 12-36 26-4 1 12-37 9-29-19-14-36-26v-2l69-1 21-63z" fill="#FEFEFE"/>
<path transform="translate(1254,789)" d="m0 0 2 1 16 50 4 12v2h70l-5 5-13 10-17 12-19 14-1 3 18 56 2 5v3l-5-2-13-10-17-12-19-14-4-1-17 13-17 12-18 13-4 1 12-37 9-29-19-14-36-26v-2l69-1 21-63z" fill="#FEFEFE"/>
<path transform="translate(1382,917)" d="m0 0 2 1 16 50 4 12v2h70l-5 5-13 10-14 10-18 13-5 4h-73l-19-14-36-26v-2l69-1 21-63z" fill="#FEFEFE"/>
<path transform="translate(323)" d="m0 0h71l21 63v3l-5-2-13-10-17-12-19-14-4-1-17 13-17 12-18 13-4 1 12-37 9-28z" fill="#FEFEFE"/>
</svg>
